# xmcd
#
# Track frame offsets:
#	150
#	17017
#	36111
#	54315
#	76697
#	95872
#	120825
#	136727
#	155635
#
# Disc length: 2268 seconds
#
# Revision: 1
# Processed by: cddbd v1.4PL0 Copyright (c) Steve Scherf et al.
# Submitted via: audiograbber 1.80
#
DISCID=6208da09
DTITLE=Thad Cockrell - Stack of Dreams - Stack of Dreams
DYEAR=1900
DGENRE=
TTITLE0=Pretending
TTITLE1=Hard Time
TTITLE2=Why?
TTITLE3=How Far Can I Drive Tonight?
TTITLE4=Vacan Cy
TTITLE5=Stack of Dreams
TTITLE6=Together Again
TTITLE7=Burdens Rest Easy
TTITLE8=He Set Me Free
EXTD=
EXTT0=
EXTT1=
EXTT2=
EXTT3=
EXTT4=
EXTT5=
EXTT6=
EXTT7=
EXTT8=
PLAYORDER=
